# xmcd CD database file
#
# Track frame offsets:
#	150
#	16472
#	32926
#	52462
#	69972
#	87717
#	103881
#	120787
#	141812
#	163962
#
# Disc length: 2358 seconds
#
# Revision: 4
# Processed by: cddbd v1.5.2PL0 Copyright (c) Steve Scherf et al.
# Submitted via: CDex 1.70beta3
#
DISCID=9109340a
DTITLE=TOHO JAZZ MESSENGERS - girls apartment
DYEAR=2010
DGENRE=Jazz
TTITLE0=TLi-synth - a caged persona
TTITLE1=flap+frog - voyage Gothic Bold
TTITLE2=OrangeCoffee - Fall Coin Sunset
TTITLE3=トマト組 - In The Shade
TTITLE4=シュールレアチーズ - Labyrinth
TTITLE5=OrangeCoffee - tea break
TTITLE6=TLi-synth - No More News
TTITLE7=トマト組 - Parfait Amour
TTITLE8=シュールレアチーズ - Burning Rum Tea
TTITLE9=flap+frog - Un Fiore Rosso (Take1)
EXTD=YEAR: 2010
EXTT0=
EXTT1=
EXTT2=
EXTT3=
EXTT4=
EXTT5=
EXTT6=
EXTT7=
EXTT8=
EXTT9=
PLAYORDER=
